<?xml version="1.0" encoding="utf-8"?>
<!-- Generator: Adobe Illustrator 26.0.2, SVG Export Plug-In . SVG Version: 6.00 Build 0)  -->
<svg version="1.1" id="圖層_1" xmlns="http://www.w3.org/2000/svg" xmlns:xlink="http://www.w3.org/1999/xlink" x="0px" y="0px"
	 viewBox="0 0 62.9 91.8" style="enable-background:new 0 0 62.9 91.8;" xml:space="preserve">
<style type="text/css">
	.st0{fill:#FFFFFF;}
</style>
<g id="_x23_ffffffff">
	<path class="st0" d="M12.2,9c-0.2-4.1,2.9-8.1,7-8.8c4.6-1.1,9.8,2.3,10.3,7.1c0.5,5.1-0.1,10.3,0.3,15.4l0.6,0.6
		c10.8,3.4,21.8,6.2,32.6,9.8v36.2c-2.7,4.4-5.9,8.5-8.5,13c-0.6,3.1-0.2,6.4-0.9,9.5h-2.8c-0.9-3.4-0.9-7.1-0.4-10.6
		c2.4-4.7,6.3-8.7,8.4-13.5C59,57.1,58.8,46.6,58.8,36c-2.3-0.7-4.6-1.3-6.9-2c-0.2,4.9,0.2,9.7-0.4,14.6c-1.1,0-2.2,0.1-3.4,0.1
		c-0.7-5.2-0.3-10.5-0.4-15.8c-2.3-0.8-4.7-1.5-7-2.1c-0.1,4.9,0.2,9.8-0.3,14.6c-1.2,0-2.7,0.5-3.6-0.7c-0.5-5.1,0-10.2-0.3-15.2
		c-2.3-0.6-4.6-1.3-6.9-1.9c-0.2,4.4,0.2,8.8-0.2,13.1c0.1,2-2.5,1.6-3.7,1.4c-0.7-11.3,0.1-22.7-0.4-34c-0.2-2.8-3.5-4.7-6-3.7
		c-1.9,0.6-3.2,2.6-3.1,4.6c-0.3,15,0.4,30-0.3,45c-0.8,0.1-2.5,0.2-3.4,0.3c-0.8-4-0.4-8-0.6-12C8.4,42.7,4.7,45,4.3,49
		C4,55.2,4,61.4,4.2,67.6c3.1,5.1,7.9,8.8,11.2,13.8c0.5,3.5,0.2,7-0.1,10.5h-3.5c-0.8-3.6,1-8.1-1.9-11C6.7,77,3.2,73.4,0.1,69.5
		c-0.2-6.9-0.1-13.8,0-20.6c0.4-6.3,6.3-10.2,12-11C12.2,28.3,12.1,18.6,12.2,9z"/>
</g>
</svg>
