<?xml version="1.0" encoding="utf-8"?>
<!-- Generator: Adobe Illustrator 26.0.2, SVG Export Plug-In . SVG Version: 6.00 Build 0)  -->
<svg version="1.1" id="圖層_1" xmlns="http://www.w3.org/2000/svg" xmlns:xlink="http://www.w3.org/1999/xlink" x="0px" y="0px"
	 viewBox="0 0 474.7 359.1" style="enable-background:new 0 0 474.7 359.1;" xml:space="preserve">
<style type="text/css">
	.st0{fill:#A0041E;}
	.st1{fill:#D60A24;}
	.st2{fill:#E8E2CD;}
	.st3{fill:#F4F2EA;}
	.st4{opacity:0.6;}
</style>
<g id="Background">
</g>
<g id="Theme_Set">
</g>
<g id="Design_Elements">
	<g>
		<g>
			<path class="st0" d="M0.6,196.8c0,2.7-0.6,5.1-0.1,7.3c0.6,2.8,0.7,5.6,2,7.2c1.6,1.9,5,5.1,7.9,4.6c2.2-1,3.9-3.7,6.2-4.1
				c2.3-0.5,4.6-3.2,7.1-3.2c2.3,0.1,4.7,1.7,7.2,2.2c2.2,0.4,5.4-1.4,7.8-0.7c2.2,0.7,4.3,2.6,6.7,3.5c2.1,0.8,6.3,0,8.6,1.1
				c2.1,0.9,3.1,4.5,5.3,5.6c2.1,1,6.9-4.7,9.2-3.5c2.1,1.1,9.6-1.3,11.8-0.1c2.1,1.1,3.4,3.7,5.6,5c2.1,1.1,5.1,0.7,7.2,1.9
				c2,1.1,5.7-0.3,7.8,0.9c2.1,1.1,1.7,6.7,3.9,8c2.1,1.1,5.5-0.1,7.7,1.2c2.1,1.1,3.2,4,5.4,5.2c2.1,1.2,3.4,3.7,5.6,4.9
				c2.1,1.2,4.7,1.5,6.8,2.7c2.1,1.2,4.7,1.4,6.9,2.6c2.1,1.2,5.2,0.6,7.3,1.8c2.1,1.2,2.5,5.2,4.6,6.4c2,1.5,6.5-0.8,8.5,0.6
				c2,1.5,3.2,4,5.1,5.4c2.1,1.5,2,5.8,3.9,7.2c2.1,1.4,4.9,1.6,6.8,3c2.1,1.4,5.4,0.8,7.4,2.2c2.1,1.4,0.2,10.6,2.2,11.9
				c2.1,1.4,5.2,1.2,7.1,2.5c2.1,1.4,4,2.9,6,4.2c2.1,1.4,3.2,4.1,5.1,5.5c2.1,1.4,5.1,1.3,7,2.6c2.1,1.4,4.4,2.4,6.3,3.7
				c2.1,1.5,0.1,4.6,2,6c2,1.5,4.9,2.1,6.6,3.6c2,1.6,3.1,4.3,4.8,5.9c1.8,1.8-2.2,4.8-1,8.5c0.7,2.3,3.5,6.4,4.8,8.5
				c1.2,2-1.9,5.5,2.4,6.7c2.2,0.6,1.8,3.7,2.6,6.1c0.7,2.2-2.3,4,3.1,7.9c2.2,0.2,5.3-3.1,7.5-3.3c2.2-0.2,4.9,3.5,7.2,3.1
				c2.2-0.4,4-2.8,6.2-3.4c2.1-0.7,5.6,1.8,7.7,0.9c2.1-0.9,2.4-5.6,4.4-6.7c2-1.1,5.4,0.1,7.3-1.2c1.9-1.3,0.5-6.6,2.2-8.1
				c1.7-1.5,4.2-1.8,5.7-3.4c1.5-1.7,5.3-1.5,6.5-3.4c1.6-1.9,4-3.2,5.3-5.1c1.3-2,1.3-5.1,2.1-7.2c0.9-2.2,0.8-4.9,1.3-7.2
				c0.5-2.3-2.1-4.8-2.1-7.1c0-2.3-1-4.1-1.4-6.5c-0.3-2.3,4-5.5,3.3-7.8c-0.4-1.3-2-2.3-3.4-3.3c12.4-22.7,19-51,21.9-76.9
				c16.6,22.3,61,48.8,65.5,62.3l0.8,0.5c-0.3,0.5-0.5,1-0.8,1.5c-1.1,1.8-2.8,3.1-3.7,4.9c-0.9,1.9-1,4-1.6,5.9
				c-0.6,2-0.7,3.9-1,5.9c-0.4,2,0.7,4,0.6,6c-0.1,2-2.9,4-2.8,6.1c0.2,2.1-1.5,4.6-1.1,6.6c0.4,2,4,3.2,4.7,5.2
				c0.7,1.9,2.5,3.2,3.4,5c1,1.8-1.1,5.4,0.1,7.1c1.2,1.7,3,3.1,4.5,4.6c1.4,1.5,3.5,2.4,5.1,3.7c1.6,1.3,4.9,0,6.6,1.1
				c1.7,1.1,1.2,6.4,3,7.3c1.9,0.9,4.6,0.1,6.5,0.7c2,0.6,4.4-0.7,6.4-0.3c2,0.4,3.9,0.1,6,0.2c2.1,0.1,3.8-1,5.8-1.1
				c2.1-0.2,4.6,3.6,6.6,3.2c2-0.4,3-4.4,4.9-5.1c1.9-0.7,5.7,2.8,7.6,1.8c1.8-0.9,2.7-3.8,4.4-5c1.7-1.2,1.1-4.9,2.6-6.3
				c1.5-1.4,4.5-1.1,5.8-2.6c1.3-1.6,4.4-2,5.5-3.8c1.1-1.7,2-3.9,2.9-5.7c0.9-1.9,1-4.2,1.6-6.2c0.6-2-1.3-4.5-0.9-6.5
				c0.3-2,4.4-3.7,4.4-5.8c0.1-2.1-1.5-4.3-1.7-6.3c-0.2-2-1.2-4-1.6-6c-0.4-2-3.6-3-4.3-5c-0.7-1.9,0.2-4.3-0.8-6.1
				c-0.9-1.8,0.8-5.4-0.3-7.1c-1.2-1.7-5.9-0.5-7.3-2c-1.4-1.5-1-4.8-2.6-6.1c-1.5-1.3-2.7-3.4-4.5-4.6c-1.8-1.1-3.7-2.3-5.5-3.2
				c-1.9-0.9-5.3,2.3-7.2,1.7c-2-0.6-2.7-6.1-4.8-6.5c-2-0.4-4.6,3.9-6.7,3.8c-1.8-0.1-3.5-2-5.3-2.4
				c9.1-34.8-65.9-150.7-80.1-196.5c-12.2-39.4-45.3-63-74-55.3C216.6,15.9,89.8,49.5,37.7,127.5c-1.7-1-3.4-2.8-5-2.7
				c-2.6,0.1-5,0.9-7.2,1.3c-2.6,0.5-4.6,2.1-6.5,3c-2.4,1.1-3.8,2.6-5.2,4.4c-1.4,1.9-4.7,3.5-4.9,6.1c-0.2,2.1,3.8,4.8,4.5,7.4
				c-1.1,1.8-1,5.1-2.1,7.7c-0.9,2.1-5.5,2.9-6.4,5.4c-0.8,2.3-3.8,4.1-4.5,6.6c-0.6,2.4,2.5,5.7,1.9,8.2c-0.5,2.4-1.9,4.7-2.3,7.2
				c-0.4,2.5,0.7,5.1,0.5,7.5C0.4,192,0.6,194.4,0.6,196.8z"/>
			<g>
				<path class="st1" d="M37.7,127.5c0.7,0.4,1.3,0.7,2,0.7c2.2,0.1,4.4,1.3,6.8,1.6c2.3,0.3,4.8-1.2,7.3-0.7c2.3,0.4,4.3,2,6.7,2.6
					c2.2,0.5,5-1,7.4-0.3c2.2,0.6,4.5,1.4,6.8,2.1c2.2,0.7,3.8,3.4,6.1,4.1c2.2,0.7,4.2,2,6.5,2.8c2.2,0.8,5.8-2.2,8.1-1.3
					c2.2,0.8,3.1,4.9,5.4,5.8c2.2,0.9,5.7-1.5,8-0.6c2.2,0.9,2.6,5.9,4.8,6.9c2.2,1,5.5-0.8,7.7,0.2c2.1,1,4.8,1,6.9,2.1
					c2.1,1,4.4,1.8,6.6,2.9c2.1,1.1,2.4,5.6,4.6,6.7c2.1,1.1,5.8-0.9,7.9,0.2c2.1,1.1,2.1,5.9,4.2,7.1c2.1,1.2,6.5-1.9,8.6-0.7
					c2,1.2,3.1,4,5.2,5.2c2,1.2,3.5,3.4,5.5,4.6c2,1.3,6.4-1.2,8.4,0.1c2,1.3,3.6,3.3,5.6,4.7c2,1.3,1.3,6.7,3.3,8.1
					c2,1.2,4.8,1.2,6.8,2.4c2,1.2,5.2,0.5,7.2,1.7c2,1.3,2.9,4.2,4.9,5.5c2,1.3,2.9,4.1,4.9,5.4c2,1.3,5.7-0.1,7.6,1.2
					c2,1.3,1.9,5.6,3.8,6.9c2,1.3,4.3,2.1,6.1,3.4c1.9,1.4,6.9-1.5,8.7-0.1c1.9,1.4,2.3,4.9,4.1,6.3c1.9,1.4,4.2,2.3,6,3.7
					c1.9,1.5,3.4,3.3,5.2,4.8c1.9,1.5,2.9,3.9,4.7,5.3c1.8,1.6,4.8,1.7,6.5,3.2c1.8,1.6,1.1,5.7,2.8,7.3c1.7,1.6,6.3,0.3,7.9,2
					c1.7,1.7,1.1,5.5,2.6,7.2c1.6,1.8,2.8,3.7,4.3,5.5c1.5,1.8,6.2,1.1,7.6,3c1.5,1.9-1.6,6.9-0.4,8.9c1.3,2,4.4,2.7,5.5,4.7
					c1.2,2.1,1.5,4.4,2.4,6.5c0.4,0.9,1.1,1.5,2,2.2c12.4-22.7,19-51,21.9-76.9c-1.7-25.2-6.6-56.1-12.2-78.8
					c-4-16.1-35-42.2-24-46.2c2.3-3.4,27.1,22.5,26.5,33.5c2.5-3-5.9-45.6,2.5-44.4c8.4,1.2,8.3,8.6,4.2,8.6
					c-4.5,0,6.4,34.4,6.7,52.4c0.5,31.7,6.2,57.4-2.6,76.6c17.5,22,59.9,47.5,64.2,60.7l0.8,0.5c0.7-1.3,1.4-2.6,2.3-3.7
					c1.3-1.6,4-1.6,5.5-3c1.5-1.4,2.1-3.6,3.7-4.8c1.7-1.2,3.8-1.3,5.6-2.2c1.8-0.9,3.2-2.3,5.1-3c1.9-0.7,3.6-1.8,5.6-2.3
					c2-0.4,3.8-2.2,5.9-2.3c0.3,0,0.5,0,0.8,0.1c9.1-34.8-65.9-150.7-80.1-196.5c-12.2-39.4-45.3-63-74-55.3
					C216.6,15.9,89.8,49.5,37.7,127.5z"/>
			</g>
			<path class="st2" d="M377.1,312.1c0.4,2,4,3.2,4.7,5.2c0.7,1.9,2.5,3.2,3.4,5c1,1.8-1.1,5.4,0.1,7.1c1.2,1.7,3,3.1,4.5,4.6
				c1.4,1.5,3.5,2.4,5.1,3.7c1.6,1.3,4.9,0,6.6,1.1c1.7,1.1,1.2,6.4,3,7.3c1.9,0.9,4.6,0.1,6.5,0.7c2,0.6,4.4-0.7,6.4-0.3
				c2,0.4,3.9,0.1,6,0.2c2.1,0.1,3.8-1,5.8-1.1c2.1-0.2,4.6,3.6,6.6,3.2c2-0.4,3-4.4,4.9-5.1c1.9-0.7,5.7,2.8,7.6,1.8
				c1.8-0.9,2.7-3.8,4.4-5c1.7-1.2,1.1-4.9,2.6-6.3c1.5-1.4,4.5-1.1,5.8-2.6c1.3-1.6,4.4-2,5.5-3.8c1.1-1.7,2-3.9,2.9-5.7
				c0.9-1.9,1-4.2,1.6-6.2c0.6-2-1.3-4.5-0.9-6.5c0.3-2,4.4-3.7,4.4-5.8c0.1-2.1-1.5-4.3-1.7-6.3c-0.2-2-1.2-4-1.6-6
				c-0.4-2-3.6-3-4.3-5c-0.7-1.9,0.2-4.3-0.8-6.1c-0.9-1.8,0.8-5.4-0.3-7.1c-1.2-1.7-5.9-0.5-7.3-2c-1.4-1.5-1-4.8-2.6-6.1
				c-1.5-1.3-2.7-3.4-4.5-4.6c-1.8-1.1-3.7-2.3-5.5-3.2c-1.9-0.9-5.3,2.3-7.2,1.7c-2-0.6-2.7-6.1-4.8-6.5c-2-0.4-4.6,3.9-6.7,3.8
				c-1.8-0.1-3.5-2-5.3-2.4c-0.3-0.1-0.5-0.1-0.8-0.1c-2,0.2-3.9,1.9-5.9,2.3c-2,0.4-3.7,1.6-5.6,2.3c-1.9,0.7-3.3,2.1-5.1,3
				c-1.8,0.9-3.9,1-5.6,2.2c-1.7,1.2-2.2,3.4-3.7,4.8c-1.5,1.4-4.2,1.4-5.5,3c-0.9,1.1-1.6,2.5-2.3,3.7c-0.3,0.5-0.5,1-0.8,1.5
				c-1.1,1.8-2.8,3.1-3.7,4.9c-0.9,1.9-1,4-1.6,5.9c-0.6,2-0.7,3.9-1,5.9c-0.4,2,0.7,4,0.6,6c-0.1,2-2.9,4-2.8,6.1
				C378.4,307.6,376.7,310.1,377.1,312.1z"/>
			<path class="st2" d="M0.6,196.8c0,2.7-0.6,5.1-0.1,7.3c0.6,2.8,0.7,5.6,2,7.2c1.6,1.9,5,5.1,7.9,4.6c2.2-1,3.9-3.7,6.2-4.1
				c2.3-0.5,4.6-3.2,7.1-3.2c2.3,0.1,4.7,1.7,7.2,2.2c2.2,0.4,5.4-1.4,7.8-0.7c2.2,0.7,4.3,2.6,6.7,3.5c2.1,0.8,6.3,0,8.6,1.1
				c2.1,0.9,3.1,4.5,5.3,5.6c2.1,1,6.9-4.7,9.2-3.5c2.1,1.1,9.6-1.3,11.8-0.1c2.1,1.1,3.4,3.7,5.6,5c2.1,1.1,5.1,0.7,7.2,1.9
				c2,1.1,5.7-0.3,7.8,0.9c2.1,1.1,1.7,6.7,3.9,8c2.1,1.1,5.5-0.1,7.7,1.2c2.1,1.1,3.2,4,5.4,5.2c2.1,1.2,3.4,3.7,5.6,4.9
				c2.1,1.2,4.7,1.5,6.8,2.7c2.1,1.2,4.7,1.4,6.9,2.6c2.1,1.2,5.2,0.6,7.3,1.8c2.1,1.2,2.5,5.2,4.6,6.4c2,1.5,6.5-0.8,8.5,0.6
				c2,1.5,3.2,4,5.1,5.4c2.1,1.5,2,5.8,3.9,7.2c2.1,1.4,4.9,1.6,6.8,3c2.1,1.4,5.4,0.8,7.4,2.2c2.1,1.4,0.2,10.6,2.2,11.9
				c2.1,1.4,5.2,1.2,7.1,2.5c2.1,1.4,4,2.9,6,4.2c2.1,1.4,3.2,4.1,5.1,5.4c2.1,1.4,5.1,1.3,7,2.6c2.1,1.4,4.4,2.4,6.3,3.7
				c2.1,1.5,0.1,4.6,2,6c2,1.5,4.9,2.1,6.6,3.6c2,1.6,3.1,4.3,4.8,5.9c1.8,1.8-2.2,4.8-1,8.5c0.7,2.3,3.5,6.4,4.8,8.5
				c1.2,2-1.9,5.5,2.4,6.7c2.2,0.6,1.8,3.7,2.6,6.1c0.7,2.2-2.3,4,3.1,7.9c2.2,0.2,5.3-3.1,7.5-3.3c2.2-0.2,4.9,3.5,7.2,3.1
				c2.2-0.4,4-2.8,6.2-3.4c2.1-0.7,5.6,1.8,7.7,0.9c2.1-0.9,2.4-5.6,4.4-6.7c2-1.1,5.4,0.1,7.3-1.2c1.9-1.3,0.5-6.6,2.2-8.1
				c1.7-1.5,4.2-1.8,5.7-3.4c1.5-1.7,5.3-1.5,6.5-3.4c1.6-1.9,4-3.2,5.3-5.1c1.3-2,1.3-5.1,2.1-7.2c0.9-2.2,0.8-4.9,1.3-7.2
				c0.5-2.3-2.1-4.8-2.1-7.1c0-2.3-1-4.1-1.4-6.5c-0.3-2.3,4-5.5,3.3-7.8c-0.4-1.3-2-2.3-3.4-3.3c-0.8-0.6-1.6-1.3-2-2.2
				c-0.9-2.1-1.3-4.4-2.4-6.5c-1.1-2-4.2-2.7-5.5-4.7c-1.2-1.9,1.9-6.9,0.4-8.9c-1.4-1.8-6.1-1.1-7.6-3c-1.5-1.8-2.6-3.7-4.3-5.5
				c-1.5-1.7-0.9-5.5-2.6-7.2c-1.6-1.7-6.2-0.4-7.9-2c-1.7-1.6-1-5.7-2.8-7.3c-1.7-1.5-4.7-1.7-6.5-3.2c-1.7-1.5-2.8-3.8-4.7-5.3
				c-1.8-1.5-3.3-3.3-5.2-4.8c-1.8-1.4-4.1-2.2-6-3.7c-1.8-1.4-2.2-4.9-4.1-6.3c-1.9-1.3-6.8,1.5-8.7,0.1c-1.9-1.3-4.2-2.1-6.1-3.4
				c-1.9-1.3-1.8-5.6-3.8-6.9c-1.9-1.3-5.6,0-7.6-1.2c-2-1.3-2.9-4.1-4.9-5.4c-1.9-1.2-2.8-4.2-4.9-5.5c-2-1.2-5.2-0.5-7.2-1.7
				c-2-1.2-4.8-1.2-6.8-2.4c-2-1.3-1.3-6.8-3.3-8.1c-2-1.3-3.5-3.4-5.6-4.7c-2-1.3-6.4,1.2-8.4-0.1c-2-1.2-3.5-3.4-5.5-4.6
				c-2.1-1.2-3.2-4.1-5.2-5.2c-2.1-1.2-6.5,1.8-8.6,0.7c-2.1-1.2-2.2-5.9-4.2-7.1c-2.1-1.1-5.9,0.9-7.9-0.2
				c-2.1-1.1-2.5-5.7-4.6-6.7c-2.1-1.1-4.5-1.8-6.6-2.9c-2.2-1.1-4.8-1.1-6.9-2.1c-2.2-1-5.5,0.7-7.7-0.2c-2.2-1-2.6-6-4.8-6.9
				c-2.2-1-5.8,1.5-8,0.6c-2.2-0.9-3.2-5-5.4-5.8c-2.3-0.9-5.9,2.1-8.1,1.3c-2.3-0.8-4.3-2.1-6.5-2.8c-2.3-0.7-3.9-3.4-6.1-4.1
				c-2.3-0.7-4.6-1.5-6.8-2.1c-2.4-0.7-5.1,0.8-7.4,0.3c-2.4-0.6-4.4-2.1-6.7-2.6c-2.4-0.5-5,1-7.3,0.7c-2.5-0.3-4.6-1.5-6.8-1.6
				c-0.7-0.1-1.4-0.3-2-0.7c-1.7-1-3.4-2.8-5-2.7c-2.6,0.1-5,0.9-7.2,1.3c-2.6,0.5-4.6,2.1-6.5,3c-2.4,1.1-3.8,2.6-5.2,4.4
				c-1.4,1.9-4.7,3.5-4.9,6.1c-0.2,2.1,3.8,4.8,4.5,7.4c-1.1,1.8-1,5.1-2.1,7.7c-0.9,2.1-5.5,2.9-6.4,5.4c-0.8,2.3-3.8,4.1-4.5,6.6
				c-0.6,2.4,2.5,5.7,1.9,8.2c-0.5,2.4-1.9,4.7-2.3,7.2c-0.4,2.5,0.7,5.1,0.5,7.5C0.4,192,0.6,194.4,0.6,196.8z"/>
			<path class="st3" d="M377.1,312.1c0.4,2,4,3.2,4.7,5.2c0.7,1.9,2.5,3.2,3.4,5c1,1.8-1.1,5.4,0.1,7.1c1.2,1.7,3,3.1,4.5,4.6
				c1.4,1.5,3.5,2.4,5.1,3.7c1.6,1.3,4.9,0,6.6,1.1c1.7,1.1,1.2,6.4,3,7.3c1.9,0.9,4.6,0.1,6.5,0.7c2,0.6,4.4-0.7,6.4-0.3
				c2,0.4,3.9,0.1,6,0.2c2.1,0.1,3.8-1,5.8-1.1c2.1-0.2,4.6,3.6,6.6,3.2c2-0.4,3-4.4,4.9-5.1c1.9-0.7,5.7,2.8,7.6,1.8
				c1.8-0.9,2.7-3.8,4.4-5c1.7-1.2,1.1-4.9,2.6-6.3c1.5-1.4,4.5-1.1,5.8-2.6c1.3-1.6,4.4-2,5.5-3.8c1.1-1.7,2-3.9,2.9-5.7
				c0.9-1.9,1-4.2,1.6-6.2c0.6-2-1.3-4.5-0.9-6.5c0.3-2,4.4-3.7,4.4-5.8c0.1-2.1-1.5-4.3-1.7-6.3c-0.2-2-1.2-4-1.6-6
				c-0.4-2-3.6-3-4.3-5c-0.7-1.9,0.2-4.3-0.8-6.1c-0.9-1.8,0.8-5.4-0.3-7.1c-1.2-1.7-5.9-0.5-7.3-2c-1.4-1.5-1-4.8-2.6-6.1
				c-1.5-1.3-2.7-3.4-4.5-4.6c-1.8-1.1-3.7-2.3-5.5-3.2c-1.9-0.9-5.3,2.3-7.2,1.7c-2-0.6-2.7-6.1-4.8-6.5c-2-0.4-4.6,3.9-6.7,3.8
				c-1.8-0.1-3.5-2-5.3-2.4c-0.3-0.1-0.5-0.1-0.8-0.1c-2,0.2-3.9,1.9-5.9,2.3c-2,0.4-3.7,1.6-5.6,2.3c-1.9,0.7-3.3,2.1-5.1,3
				c-1.8,0.9-3.9,1-5.6,2.2c-1.7,1.2-2.2,3.4-3.7,4.8c-1.5,1.4-4.2,1.4-5.5,3c-0.9,1.1-1.6,2.5-2.3,3.7c-0.3,0.5-0.5,1-0.8,1.5
				c-1.1,1.8-2.8,3.1-3.7,4.9c-0.9,1.9-1,4-1.6,5.9c-0.6,2-0.7,3.9-1,5.9c-0.4,2,0.7,4,0.6,6c-0.1,2-2.9,4-2.8,6.1
				C378.4,307.6,376.7,310.1,377.1,312.1z M390.6,317.4c1.4,1.3,4.5,0,6,1.1c1.6,1.1,1,6.4,2.7,7.3c1.7,0.9,4.2,0.1,5.9,0.7
				c1.8,0.6,4-0.7,5.8-0.3c1.9,0.4,3.6,0.1,5.5,0.2c1.9,0.1,3.5-1,5.3-1.1c1.9-0.2,4.2,3.6,6,3.2c1.8-0.4,2.7-4.4,4.5-5.1
				c1.7-0.7,5.2,2.8,6.9,1.8c1.6-0.9,2.5-3.8,4-5c1.5-1.2,1-4.9,2.4-6.3c1.3-1.4,4.1-1,5.3-2.6c1.2-1.6,4-2,5-3.8
				c1-1.8,1.8-3.9,2.6-5.7c0.8-1.9,0.9-4.2,1.4-6.2c0.6-2-1.2-4.5-0.8-6.5c0.3-2,2.7-3.1,2.7-5.1c0-1,2.5-2.2,2.7-1.1
				c0.4,2-0.7,4.4-0.5,6.5c0.2,2,4.8,2,3.6,5.8c-0.6,1.9-3.7,3.7-4,5.8c-0.3,2,1.4,4.5,0.8,6.5c-0.5,1.9-0.7,4.3-1.4,6.2
				c-0.8,1.8-1.6,3.9-2.6,5.7c-1,1.8-3.8,2.2-5,3.8c-1.2,1.6-4,1.3-5.3,2.6c-1.4,1.4-0.9,5.2-2.4,6.3c-1.5,1.2-2.4,4.1-4,5
				c-1.7,1-5.1-2.5-6.9-1.8c-1.8,0.7-2.6,4.6-4.5,5.1c-1.8,0.4-4.2-3.4-6-3.2c-1.8,0.2-3.4,1.2-5.3,1.1c-1.9-0.1-3.6,0.2-5.4-0.2
				c-1.8-0.4-4,0.9-5.8,0.3c-1.8-0.6-4.2,0.2-5.9-0.7c-1.7-0.9-1.1-6.2-2.7-7.3c-1.6-1.1-4.6,0.2-6.1-1.1c-1.5-1.3-3.4-2.2-4.6-3.7
				c-1.3-1.5-3.6-2.7-4.1-4.6C385,315.8,389.3,316.2,390.6,317.4z"/>
			<path class="st3" d="M0.6,196.8c0,2.7-0.6,5.1-0.1,7.3c0.6,2.8,0.7,5.6,2,7.2c1.6,1.9,5,5.1,7.9,4.6c2.2-1,3.9-3.7,6.2-4.1
				c2.3-0.5,4.6-3.2,7.1-3.2c2.3,0.1,4.7,1.7,7.2,2.2c2.2,0.4,5.4-1.4,7.8-0.7c2.2,0.7,4.3,2.6,6.7,3.5c2.1,0.8,6.3,0,8.6,1.1
				c2.1,0.9,3.1,4.5,5.3,5.6c2.1,1,6.9-4.7,9.2-3.5c2.1,1.1,9.6-1.3,11.8-0.1c2.1,1.1,3.4,3.7,5.6,5c2.1,1.1,5.1,0.7,7.2,1.9
				c2,1.1,5.7-0.3,7.8,0.9c2.1,1.1,1.7,6.7,3.9,8c2.1,1.1,5.5-0.1,7.7,1.2c2.1,1.1,3.2,4,5.4,5.2c2.1,1.2,3.4,3.7,5.6,4.9
				c2.1,1.2,4.7,1.5,6.8,2.7c2.1,1.2,4.7,1.4,6.9,2.6c2.1,1.2,5.2,0.6,7.3,1.8c2.1,1.2,2.5,5.2,4.6,6.4c2,1.5,6.5-0.8,8.5,0.6
				c2,1.5,3.2,4,5.1,5.4c2.1,1.5,2,5.8,3.9,7.2c2.1,1.4,4.9,1.6,6.8,3c2.1,1.4,5.4,0.8,7.4,2.2c2.1,1.4,0.2,10.6,2.2,11.9
				c2.1,1.4,5.2,1.2,7.1,2.5c2.1,1.4,4,2.9,6,4.2c2.1,1.4,3.2,4.1,5.1,5.4c2.1,1.4,5.1,1.3,7,2.6c2.1,1.4,4.4,2.4,6.3,3.7
				c2.1,1.5,0.1,4.6,2,6c2,1.5,4.9,2.1,6.6,3.6c2,1.6,3.1,4.3,4.8,5.9c1.8,1.8-2.2,4.8-1,8.5c0.7,2.3,3.5,6.4,4.8,8.5
				c1.2,2-1.9,5.5,2.4,6.7c2.2,0.6,1.8,3.7,2.6,6.1c0.7,2.2-2.3,4,3.1,7.9c2.2,0.2,5.3-3.1,7.5-3.3c2.2-0.2,4.9,3.5,7.2,3.1
				c2.2-0.4,4-2.8,6.2-3.4c2.1-0.7,5.6,1.8,7.7,0.9c2.1-0.9,2.4-5.6,4.4-6.7c2-1.1,5.4,0.1,7.3-1.2c1.9-1.3,0.5-6.6,2.2-8.1
				c1.7-1.5,4.2-1.8,5.7-3.4c1.5-1.7,5.3-1.5,6.5-3.4c1.6-1.9,4-3.2,5.3-5.1c1.3-2,1.3-5.1,2.1-7.2c0.9-2.2,0.8-4.9,1.3-7.2
				c0.5-2.3-2.1-4.8-2.1-7.1c0-2.3-1-4.1-1.4-6.5c-0.3-2.3,4-5.5,3.3-7.8c-0.4-1.3-2-2.3-3.4-3.3c-0.8-0.6-1.6-1.3-2-2.2
				c-0.9-2.1-1.3-4.4-2.4-6.5c-1.1-2-4.2-2.7-5.5-4.7c-1.2-1.9,1.9-6.9,0.4-8.9c-1.4-1.8-6.1-1.1-7.6-3c-1.5-1.8-2.6-3.7-4.3-5.5
				c-1.5-1.7-0.9-5.5-2.6-7.2c-1.6-1.7-6.2-0.4-7.9-2c-1.7-1.6-1-5.7-2.8-7.3c-1.7-1.5-4.7-1.7-6.5-3.2c-1.7-1.5-2.8-3.8-4.7-5.3
				c-1.8-1.5-3.3-3.3-5.2-4.8c-1.8-1.4-4.1-2.2-6-3.7c-1.8-1.4-2.2-4.9-4.1-6.3c-1.9-1.3-6.8,1.5-8.7,0.1c-1.9-1.3-4.2-2.1-6.1-3.4
				c-1.9-1.3-1.8-5.6-3.8-6.9c-1.9-1.3-5.6,0-7.6-1.2c-2-1.3-2.9-4.1-4.9-5.4c-1.9-1.2-2.8-4.2-4.9-5.5c-2-1.2-5.2-0.5-7.2-1.7
				c-2-1.2-4.8-1.2-6.8-2.4c-2-1.3-1.3-6.8-3.3-8.1c-2-1.3-3.5-3.4-5.6-4.7c-2-1.3-6.4,1.2-8.4-0.1c-2-1.2-3.5-3.4-5.5-4.6
				c-2.1-1.2-3.2-4.1-5.2-5.2c-2.1-1.2-6.5,1.8-8.6,0.7c-2.1-1.2-2.2-5.9-4.2-7.1c-2.1-1.1-5.9,0.9-7.9-0.2
				c-2.1-1.1-2.5-5.7-4.6-6.7c-2.1-1.1-4.5-1.8-6.6-2.9c-2.2-1.1-4.8-1.1-6.9-2.1c-2.2-1-5.5,0.7-7.7-0.2c-2.2-1-2.6-6-4.8-6.9
				c-2.2-1-5.8,1.5-8,0.6c-2.2-0.9-3.2-5-5.4-5.8c-2.3-0.9-5.9,2.1-8.1,1.3c-2.3-0.8-4.3-2.1-6.5-2.8c-2.3-0.7-3.9-3.4-6.1-4.1
				c-2.3-0.7-4.6-1.5-6.8-2.1c-2.4-0.7-5.1,0.8-7.4,0.3c-2.4-0.6-4.4-2.1-6.7-2.6c-2.4-0.5-5,1-7.3,0.7c-2.5-0.3-4.6-1.5-6.8-1.6
				c-0.7-0.1-1.4-0.3-2-0.7c-1.7-1-3.4-2.8-5-2.7c-2.6,0.1-5,0.9-7.2,1.3c-2.6,0.5-4.6,2.1-6.5,3c-2.4,1.1-3.8,2.6-5.2,4.4
				c-1.4,1.9-4.7,3.5-4.9,6.1c-0.2,2.1,3.8,4.8,4.5,7.4c-1.1,1.8-1,5.1-2.1,7.7c-0.9,2.1-5.5,2.9-6.4,5.4c-0.8,2.3-3.8,4.1-4.5,6.6
				c-0.6,2.4,2.5,5.7,1.9,8.2c-0.5,2.4-1.9,4.7-2.3,7.2c-0.4,2.5,0.7,5.1,0.5,7.5C0.4,192,0.6,194.4,0.6,196.8z M14.3,187.4
				c2,1.4,5,5.1,7.9,4.6c2.2-1,3.9-3.7,6.2-4.1c2.3-0.5,4.6-3.2,7.1-3.2c2.3,0.1,4.7,1.7,7.2,2.2c2.2,0.4,5.4-1.4,7.8-0.7
				c2.2,0.7,4.3,2.6,6.7,3.5c2.1,0.8,6.3,0.1,8.6,1.1c2.1,0.9,3.1,4.5,5.3,5.6c2.1,1,6.9-4.7,9.2-3.6c2.1,1.1,9.6-1.3,11.8-0.1
				c2.1,1.1,3.4,3.7,5.6,5c2.1,1.1,5.1,0.7,7.2,1.9c2,1.1,5.7-0.3,7.8,0.9c2.1,1.1,1.7,6.7,3.9,8c2.1,1.1,5.5,0,7.7,1.2
				c2.1,1.1,3.2,4,5.4,5.2c2.1,1.2,3.4,3.6,5.6,4.9c2.1,1.2,4.7,1.5,6.8,2.7c2.1,1.2,4.7,1.4,6.9,2.6c2.1,1.2,5.2,0.6,7.3,1.8
				c2.1,1.2,2.5,5.2,4.6,6.4c2,1.5,6.6-0.8,8.5,0.6c2,1.5,3.2,4,5.1,5.4c2.1,1.5,2,5.8,3.9,7.2c2.1,1.4,4.9,1.6,6.8,3
				c2.1,1.4,5.4,0.8,7.4,2.2c2.1,1.4,0.2,10.6,2.2,11.9c2.1,1.4,5.2,1.2,7.1,2.5c2.1,1.4,4,2.9,6,4.2c2.1,1.4,3.2,4.2,5.1,5.5
				c2.1,1.4,5.1,1.3,7,2.6c2.1,1.4,4.4,2.4,6.3,3.7c2.1,1.5,0.1,4.6,1.9,6c2.1,1.5,4.9,2.1,6.6,3.6c2,1.6,3.1,4.3,4.8,5.9
				c1.8,1.8-2.2,4.8-1,8.5c0.7,2.3,3.5,6.4,4.8,8.5c1.2,2-1.9,5.5,2.4,6.7c2.2,0.6,1.8,3.7,2.6,6.1c0.7,2.2-2.3,4,3.1,7.9
				c2.2,0.2,5.3-3.1,7.5-3.3c2.2-0.1,4.9,3.5,7.2,3.1c2.2-0.4,4.4-7,11-6.2c2.2,0.3,1.4-7,3.2-8.3c1.9-1.3,1.9-5,3.5-6.5
				c1.7-1.5,5.2-1.7,5.8-3.8c0.8-2.9,3.9-2.8,5.1-4.7c1.6-1.3,5.4,7.3,1.6,11.9c-2.6,3.2-1,4.1-2.6,5.9c-0.6,3.5-4.3,0.7-5.8,4.2
				c-0.8,2.1-3.5,6.9-5.3,8.2c-1.8,1.3-5.3,0.1-7.3,1.2c-2,1.1-2.3,5.8-4.4,6.7c-2.1,0.9-3.2-0.6-5.3,0.1c-2.2,0.7-3.5,5.7-5.7,6.1
				c-2.2,0.4-5-3.3-7.2-3.1c-2.3,0.1-5.3,3.4-7.5,3.3c-5.4-3.9-2.4-5.7-3.1-7.9c-0.8-2.5-0.3-5.5-2.6-6.1c-4.4-1.2-1.3-4.7-2.4-6.7
				c-1.2-2.1-4-6.2-4.8-8.5c-1.1-3.7,2.8-6.7,1-8.5c-1.6-1.6-2.8-4.3-4.8-5.9c-1.8-1.5-4.6-2.1-6.6-3.6c-1.8-1.4,0.2-4.5-2-6
				c-1.9-1.3-4.2-2.3-6.3-3.7c-1.9-1.3-4.9-1.2-7-2.6c-1.9-1.3-3-4-5.1-5.4c-2-1.3-3.9-2.8-6-4.2c-1.9-1.3-5-1.1-7.1-2.5
				c-1.9-1.3-0.1-10.5-2.2-11.9c-1.9-1.3-5.3-0.7-7.4-2.2c-1.9-1.3-4.8-1.5-6.8-3c-1.9-1.4-1.9-5.7-3.9-7.2c-2-1.4-3.1-3.9-5.1-5.4
				c-1.9-1.4-6.5,0.9-8.5-0.6c-2.2-1.2-2.6-5.2-4.6-6.4c-2.1-1.2-5.2-0.6-7.3-1.8c-2.1-1.2-4.8-1.4-6.9-2.6
				c-2.1-1.2-4.7-1.6-6.8-2.7c-2.2-1.2-3.5-3.7-5.6-4.9c-2.2-1.2-3.3-4.1-5.4-5.2c-2.2-1.2-5.6,0-7.7-1.2c-2.2-1.2-1.8-6.8-3.9-8
				c-2.2-1.2-5.8,0.3-7.8-0.9c-2.2-1.2-5.2-0.8-7.2-1.9c-2.2-1.2-3.5-3.9-5.6-5c-2.2-1.2-9.7,1.2-11.8,0.1c-2.3-1.1-7.1,4.6-9.2,3.5
				c-2.3-1.1-3.2-4.7-5.3-5.6c-2.3-1.1-6.4-0.3-8.6-1.1c-2.4-0.9-4.5-2.8-6.7-3.5c-2.4-0.8-5.6,1.1-7.8,0.7
				c-2.5-0.5-4.9-2.2-7.2-2.2c-2.5-0.1-4.8,2.7-7.1,3.2c-2.4,0.5-4,3.1-6.2,4.1c-2.9,0.5-6-3-7.9-4.6
				C2.6,197.7,4.4,180.4,14.3,187.4z"/>
		</g>
	</g>
</g>
<g id="Watermark" class="st4">
</g>
<g id="Label_Template">
</g>
</svg>
