<?xml version="1.0" encoding="utf-8"?>
<!-- Generator: Adobe Illustrator 26.0.1, SVG Export Plug-In . SVG Version: 6.00 Build 0)  -->
<svg version="1.1" id="圖層_1" xmlns="http://www.w3.org/2000/svg" xmlns:xlink="http://www.w3.org/1999/xlink" x="0px" y="0px"
	 viewBox="0 0 141 162.4" style="enable-background:new 0 0 141 162.4;" xml:space="preserve">
<style type="text/css">
	.st0{fill:#FFFFFF;}
	.st1{fill-rule:evenodd;clip-rule:evenodd;fill:#FFFFFF;}
</style>
<g>
	<g>
		<path class="st0" d="M55.3,36.9c-1.8-0.3-1.8-0.3-1-0.4c2.6-0.2,5.3,0.1,7.9,0.7c6,1.4,11.5,5.1,17.3,11.6l1.5,1.8l2.2-0.3
			c9.1-1.5,18.4-0.4,26.8,3.4c2.1,1,4.1,2.1,6,3.5c0.3,0.7,0.5,1.5,0.6,2.3c0.6,3.9,0.3,6.9-0.9,9.1c-0.6,0.8-0.7,1.8-0.3,2.7
			c0.4,0.9,1.3,1.4,2.3,1.4c2,0,4.1-3.2,5.1-7.6l0.4-1.8l0.8,0.8c4.3,4.8,7.6,11.4,8.1,16.1l0.2,1.3l-0.8-1.1c-1-1.7-2.4-3.1-4-4.3
			c-2.8-1.9-5.9-2.5-13.8-2.9c-7.2-0.4-11.3-1-15.3-2.3c-6.9-2.3-10.4-5.2-18.5-16c-2.4-3.4-5.2-6.6-8.1-9.6
			C67.3,40.7,61.5,37.8,55.3,36.9z"/>
		<path class="st0" d="M117.7,47.6c0-2.5,0.5-4.9,1.5-7.2c0.2-0.5,0.4-1,0.8-1.4c0.1,0-0.1,0.6-0.3,1.3c-0.7,2.4-0.8,4.9-0.3,7.4
			c0.6,3.8,0.8,4.3,4.9,8.4c1.8,1.9,4,4.4,4.9,5.4l1.4,1.8l-1.4-1.3c-2.1-1.9-4.3-3.7-6.7-5.3c-0.6-0.3-0.7-0.3-1.1,0.1
			c-0.3,0.3-0.4,0.8-0.4,3.3c-0.1,3.8-0.6,6.1-1.8,8.5c-0.7,1.3-0.8,1-0.2-0.4c0.4-1.1,0.5-1.6,0.5-5.2c0-7.3-0.8-9-5.9-12
			c-1.3-0.8-3.4-1.8-4.7-2.4c-0.8-0.3-1.5-0.7-2.3-1.1c2.4,0.5,4.8,1.2,7,2.1c2.9,1.2,3.4,1.3,3.8,1.2
			C117.5,50.4,117.6,49.7,117.7,47.6z"/>
		<path class="st0" d="M58.7,60.1c-3.5-4.9-5.8-12.4-5.3-18l0.2-1.8l0.8,0.2c1.9,0.4,3.7,1.1,5.4,2c3.4,2,4.9,4.8,6.3,11.6
			c0.4,2,1,4.4,1.3,5.1c0.9,2.1,2,4.2,3.4,6c0.9,1.3,0.3,2-1.8,1.8C65.8,66.8,61.5,63.8,58.7,60.1z"/>
		<path class="st0" d="M113.4,96.5C96.9,89.8,91,84,91,74.2c0-1.4,0.1-2.6,0.1-2.6c0.5,0.3,1,0.7,1.4,1.1c3.4,2.7,7.1,3.9,17.6,5.4
			c6.1,0.9,9.6,1.6,12.8,2.7c10.1,3.4,16.4,10.2,17.9,19.5c0.4,3.5,0.2,7-0.5,10.5c-0.6,2.1-2.3,5.9-2.7,6c-0.1,0-0.3-0.4-0.3-1.1
			c-0.3-3.7-2-7.1-4.9-9.5C129,103.2,124.5,101,113.4,96.5z"/>
		<path class="st0" d="M101.7,99.3c-0.2-1.2-0.5-2.4-0.8-3.5l-0.4-1.3l0.8,0.9c1.2,1.4,2.1,3.1,2.7,4.9c0.6,1.6,0.6,2.1,0.6,4.7
			c0.1,1.5-0.1,3.1-0.6,4.5c-0.7,2.1-1.9,4-3.5,5.6c-3,3.1-7,4.8-12.6,5.5c-1,0.1-3.9,0.3-6.4,0.5c-6.3,0.3-10.5,1-14.2,2.3
			c-0.5,0.2-1,0.3-1.1,0.3c-0.2-0.2,2.4-1.7,4.5-2.7c2.9-1.4,5.9-2.2,12.6-3.4c2.5-0.3,5-0.8,7.5-1.5
			C98.9,113.6,103.1,107.2,101.7,99.3z"/>
		<path class="st0" d="M109.3,112.8c-2.2-4.8-2.7-9.3-1.5-13.6c0.2-0.4,0.3-0.8,0.5-0.8c0.4,0.1,0.8,0.3,1.2,0.6
			c1,0.7,3.1,1.8,8.5,4.8c6.8,3.7,10.6,6.5,13.3,9.8c2.4,2.9,3.9,6.4,4.4,10.1c0.4,3.3,0.2,6.7-0.4,10c-1.8,7.1-6,12.8-12.1,16.1
			c-0.6,0.3-1.2,0.6-1.8,0.8c0.2-0.6,0.4-1.3,0.8-1.8c2-4,2.3-8.7,0.8-13c-0.9-2.8-2.8-6.3-6.7-12.1
			C111.6,117,110.5,115.2,109.3,112.8z"/>
		<path class="st0" d="M46.9,138.4c6-5.1,13.2-8.6,20.9-10.1c3.6-0.5,7.3-0.4,10.8,0.4c4.4,1.2,8.5,3.7,10.6,6.8
			c2,3,2.9,5.6,3.9,11.4c0.3,2.3,0.8,4.6,0.8,5.1c0.4,2.6,1.7,4.9,3.7,6.6c2.6,1.9,7.1,2,11.6,0.3c0.5-0.2,0.9-0.3,1.4-0.4
			c0.2,0.2-2.1,1.7-3.6,2.4c-1.8,1-3.9,1.5-6,1.4c-4,0-7.5-2.1-10.2-6.3c-1-1.8-2-3.6-2.8-5.5c-2.9-6.8-4.4-8.8-7.9-11.1
			c-2.9-1.9-6.6-2.3-9.8-0.9c-3.2,1.5-4.5,5.2-3.1,8.4c0.2,0.5,0.5,1,0.9,1.4c1.3,1.3,3,2.2,4.8,2.5c2.8,0.4,5.4-1.6,5.7-4.4
			c0-0.2,0-0.5,0-0.7c0.1-1.8-1-3.5-2.8-4.1c-2.7-1.2-5.6,0.2-5.5,2.8c0,1,0.6,1.9,1.6,2.3c0.7,0.3,0.7,0.3,0.2,0.3
			c-2.4-0.5-3-3.5-1.1-5.4c2.3-2.3,7.3-1.3,9,1.9c0.7,1.8,0.7,3.8,0.2,5.7c-1.5,3.8-5.7,5.7-9.6,4.5c-2.8-0.8-3.9-1.5-7.3-4.9
			c-5.9-6-8.1-7.2-16.5-8.5l-1.6-0.3L46.9,138.4z"/>
		<path class="st1" d="M2.9,3.6C22.4,27.3,52.4,64.2,54,66.2c1.3,1.7,0.8,3.3-1.3,4.4c-1.5,0.8-3.1,1.2-4.8,1.3
			c-1.5-0.1-2.9-0.7-4-1.8c-0.8-0.8-4-5.5-11.4-17C26.8,44.4,22,37.1,22,37c-0.3-0.2-0.3-0.2,9.9,18.1c6.5,11.5,8.5,15.6,8.5,16.1
			c0,1.1-0.3,1.7-1.7,3.2c-2.3,2.5-3.3,5.4-4,11.3c-0.8,6.6-3.1,11.3-9.6,19.3c-3.8,4.7-4.4,5.5-5.3,7.5c-1.1,2.1-1.7,4.4-1.7,6.7
			c-0.2,2.8,0.2,5.6,1.1,8.2c0.9,2.8,2.3,5.5,4,7.9c1.9,3,3.1,5.3,3.1,6.1c0,0.7,0.2,0.7,3.2,0c7.2-1.7,13.2-4.5,16.4-8
			c2-2.2,2.5-3.4,2.5-6.4c0.1-1.2-0.1-2.4-0.6-3.5c-0.8-1.8-2.4-3.4-5.9-5.7c-4.5-3.1-6.5-5.6-7-9c-0.4-2.8,0.1-4.8,2.6-10.1
			c2.6-5.4,3.3-7.7,3.7-13.2c0.3-3.5,0.7-4.9,1.7-6c1.1-1.2,2-1.6,4.6-1.9c4.3-0.6,7-1.7,9.2-3.8c1.8-1.5,2.9-3.8,2.8-6.1l0.1-1.9
			l-1.1-1.2C54.8,60,0.3,0,0,0C-0.1,0,1.3,1.6,2.9,3.6z M28.6,122.7c0.9-1.6,0.4-3.6-1.1-4.6c-1.4-0.9-3.6-0.5-3.6,0.8
			c0,0.4,0.3,0.8,0.7,0.8c0.8,0.4,0.8,0.8,0.3,1.8s-0.6,1.8,0.2,2.3C26.1,124.7,27.7,124.2,28.6,122.7z"/>
		<path class="st1" d="M62.5,78.7c-2.2,0.8-3.9,2.7-4.5,4.9c-0.3,1.3-0.2,3.8,0.4,4.5c0.9,1.2,1.8,1.5,4.1,1.5c4.6,0,8.5-2,9-4.4
			c0.4-2-1.3-4.8-3.8-6C66.1,78.5,64.2,78.3,62.5,78.7z M67.9,82.9c0.7-1,0.4-2.1-0.8-2.8c-2.3-1.4-5.7-0.3-5.7,1.9
			c0,1.1,1.8,2.3,3.4,2.3C65.9,84.2,67,83.7,67.9,82.9z"/>
	</g>
</g>
</svg>
