<?xml version="1.0" encoding="utf-8"?>
<!-- Generator: Adobe Illustrator 26.0.1, SVG Export Plug-In . SVG Version: 6.00 Build 0)  -->
<svg version="1.1" id="katman_1" xmlns="http://www.w3.org/2000/svg" xmlns:xlink="http://www.w3.org/1999/xlink" x="0px" y="0px"
	 viewBox="0 0 122.4 122.4" style="enable-background:new 0 0 122.4 122.4;" xml:space="preserve">
<style type="text/css">
	.st0{fill-rule:evenodd;clip-rule:evenodd;fill:#26A17B;}
	.st1{fill:#FFFFFF;}
</style>
<g transform="matrix(.787893 0 0 .787893 96.4821 140.204)">
	<circle class="st0" cx="-44.8" cy="-100.2" r="77.7"/>
	<g>
		<path class="st1" d="M-36.5-93L-36.5-93c-0.5,0-3.3,0.2-9.5,0.2c-4.9,0-8.4-0.1-9.6-0.2l0,0c-19-0.8-33.1-4.1-33.1-8.1
			s14.2-7.3,33.1-8.1v12.9c1.2,0.1,4.8,0.3,9.7,0.3c5.9,0,8.8-0.2,9.4-0.3v-12.9c18.9,0.8,33.1,4.1,33.1,8.1
			C-3.4-97.2-17.6-93.9-36.5-93 M-36.5-110.6v-11.5h26.4v-17.6h-72v17.6h26.4v11.5c-21.5,1-37.6,5.2-37.6,10.3S-77.1-91-55.7-90v37
			h19.1v-37c21.6-0.9,37.7-5.1,37.7-10.2S-15-109.6-36.5-110.6"/>
	</g>
</g>
</svg>
