<?xml version="1.0" encoding="utf-8"?>
<!-- Generator: Adobe Illustrator 26.0.2, SVG Export Plug-In . SVG Version: 6.00 Build 0)  -->
<svg version="1.1" id="圖層_1" xmlns="http://www.w3.org/2000/svg" xmlns:xlink="http://www.w3.org/1999/xlink" x="0px" y="0px"
	 viewBox="0 0 147.9 117.4" style="enable-background:new 0 0 147.9 117.4;" xml:space="preserve">
<style type="text/css">
	.st0{fill:#F4B14C;}
	.st1{fill:#CE5730;}
	.st2{fill:#F47E60;}
	.st3{fill:#F8B26A;}
</style>
<g>
	<g>
		<path class="st0" d="M31,0L0,16.4l31,16.4l31-16.4L31,0z"/>
		<path class="st0" d="M31,35.5L0,51.9l31,16.4l31-16.4L31,35.5z"/>
		<path class="st1" d="M0,16.4v35.3L31,68V32.7L0,16.4z"/>
		<path class="st2" d="M61.9,16.4v35.3L31,68V32.7L61.9,16.4z"/>
	</g>
	<path class="st3" d="M105.4,79.3c7.3-5.2,7.4-12.9,0.1-17.1L93,55.1c-1.4-0.8-2.9-1.4-4.4-1.8c0.2,0.5,0.4,1.1,0.5,1.6
		c0.2,1.1,0.2,2.2,0,3.3l12.2,7c5,2.9,5,8.1-0.1,11.7c-5,3.6-13.2,4.2-18.2,1.3l-12.2-7l-0.3-0.2c-0.5-0.3-0.9-0.6-1.3-0.9
		c-0.4-0.3-0.8-0.7-1.2-1.2c-0.6-0.7-1-1.6-1.2-2.5c-0.1-0.4-0.1-0.9-0.1-1.3c0-0.4,0.1-0.9,0.2-1.3c0.5-1.6,1.7-3.2,3.5-4.6
		c1.9-1.4,4.2-2.3,6.7-2.8c0.7-0.1,1.3-0.2,2-0.3c-0.2-0.9-0.7-1.7-1.4-2.4c-0.4-0.4-0.8-0.8-1.3-1.1c-0.8,0.1-1.5,0.3-2.2,0.5
		c-2.9,0.8-5.6,2-7.9,3.6c-2.3,1.6-3.9,3.5-4.7,5.4c-0.2,0.5-0.4,1-0.5,1.5c-0.1,0.5-0.2,1-0.2,1.5C60.8,67,61.2,68.6,62,70
		c0.3,0.5,0.7,1,1,1.5c0.8,1,1.9,1.8,3.3,2.6l12.5,7.2C86.2,85.5,98.1,84.6,105.4,79.3z"/>
	<path class="st3" d="M59.6,69.5c-0.2-0.5-0.4-1.1-0.5-1.6c-0.2-1.1-0.2-2.2,0-3.3l-12.2-7c-5-2.9-5-8.1,0.1-11.7s13.2-4.2,18.2-1.3
		l12.2,7l0.3,0.2c0.5,0.3,0.9,0.6,1.3,0.9c0.5,0.4,0.8,0.8,1.2,1.2c0.6,0.8,1,1.6,1.2,2.5c0.1,0.4,0.1,0.9,0.1,1.3
		c0,0.4-0.1,0.9-0.2,1.3c-0.5,1.6-1.7,3.2-3.5,4.6c-1.9,1.4-4.2,2.3-6.7,2.8c-0.7,0.1-1.3,0.2-2,0.3c0.2,0.9,0.7,1.7,1.4,2.4
		c0.4,0.4,0.8,0.7,1.3,1.1c0.8-0.1,1.5-0.3,2.2-0.5c2.9-0.8,5.6-2,7.9-3.6s3.9-3.5,4.7-5.4c0.2-0.5,0.4-1,0.5-1.5
		c0.1-0.5,0.2-1,0.2-1.5c0.1-1.6-0.3-3.2-1.1-4.6c-0.3-0.5-0.7-1-1-1.5c-0.9-1-2-1.9-3.3-2.6l-12.5-7.2c-7.3-4.2-19.2-3.3-26.5,1.9
		s-7.4,12.9-0.1,17.1l12.5,7.2C56.6,68.5,58.1,69.1,59.6,69.5L59.6,69.5z"/>
	<g>
		<path class="st0" d="M116.9,49.4L86,65.7l31,16.4l31-16.4L116.9,49.4z"/>
		<path class="st0" d="M116.9,84.6L86,101l31,16.4l31-16.4L116.9,84.6z"/>
		<path class="st1" d="M86,65.7V101l31,16.4V82.1L86,65.7z"/>
		<path class="st2" d="M147.9,65.7V101l-31,16.4V82.1L147.9,65.7z"/>
	</g>
</g>
</svg>
